<svg width="32" height="22" viewBox="0 0 32 22" fill="none" xmlns="http://www.w3.org/2000/svg">
<path d="M18.3781 4.4642C18.0049 4.14322 17.4251 3.98248 16.638 3.98248C16.2485 3.98248 15.859 4.01779 15.4696 4.08732C15.0795 4.15754 14.7524 4.25005 14.4872 4.36553C14.3879 4.40711 14.3212 4.44998 14.2881 4.49524C14.255 4.54059 14.2381 4.62126 14.2381 4.73615V5.06956C14.2381 5.21787 14.2918 5.29237 14.3998 5.29237C14.436 5.29187 14.4718 5.28559 14.5059 5.27377C14.5433 5.26134 14.5746 5.25139 14.5989 5.24274C15.2374 5.05335 15.8459 4.95836 16.4264 4.95836C16.9232 4.95836 17.2715 5.04907 17.4706 5.2309C17.6697 5.41223 17.769 5.72516 17.769 6.17028V6.98602C17.1891 6.84577 16.6667 6.77614 16.2023 6.77614C15.4733 6.77614 14.8935 6.95558 14.4623 7.31386C14.0315 7.67205 13.8156 8.15258 13.8156 8.75416C13.8156 9.31536 13.9897 9.76177 14.338 10.0958C14.6857 10.4298 15.1581 10.5961 15.7548 10.5961C16.1112 10.5961 16.4695 10.526 16.8302 10.3863C17.191 10.2467 17.5199 10.0479 17.8182 9.79281L17.8807 10.2006C17.9057 10.3572 17.9967 10.4354 18.1547 10.4354H18.689C18.8544 10.4354 18.938 10.3528 18.938 10.1883V5.9604C18.9374 5.28432 18.7508 4.78578 18.3781 4.4642ZM17.769 9.03973C17.4956 9.24583 17.2097 9.4023 16.9114 9.50972C16.613 9.61715 16.3272 9.67056 16.0538 9.67056C15.7305 9.67056 15.4821 9.58601 15.3079 9.41722C15.1338 9.24832 15.047 9.00741 15.047 8.69398C15.047 7.97682 15.5152 7.61804 16.4514 7.61804C16.6667 7.61804 16.8883 7.63296 17.1161 7.6615C17.3439 7.69065 17.5617 7.72984 17.769 7.77888V9.03973ZM12.7726 5.86422C12.6522 5.46435 12.4806 5.12417 12.2565 4.84417C12.033 4.56417 11.7596 4.34932 11.4363 4.20101C11.1136 4.0526 10.7529 3.9787 10.3547 3.9787C9.98201 3.9787 9.61691 4.04833 9.26111 4.18858C8.90481 4.32883 8.56901 4.53502 8.25381 4.80687L8.19201 4.41079C8.16701 4.24627 8.07151 4.16371 7.90551 4.16371H7.35871C7.19331 4.16371 7.11031 4.24627 7.11031 4.41079V12.7325C7.11031 12.8976 7.19331 12.9796 7.35871 12.9796H8.09211C8.25811 12.9796 8.34051 12.897 8.34051 12.7325V9.83936C8.87921 10.3255 9.52151 10.5689 10.2673 10.5689C10.673 10.5689 11.0419 10.4882 11.3733 10.3279C11.7047 10.1672 11.9862 9.94241 12.2183 9.65375C12.4506 9.36569 12.6309 9.01556 12.7589 8.60267C12.8875 8.19048 12.9518 7.72855 12.9518 7.21758C12.953 6.71526 12.8925 6.26398 12.7726 5.86422ZM9.98201 9.57925C9.41781 9.57925 8.87102 9.3818 8.34111 8.98572V5.53637C8.86292 5.1571 9.41842 4.96771 10.0071 4.96771C11.1342 4.96771 11.6978 5.73879 11.6978 7.27965C11.6972 8.81315 11.1255 9.57925 9.98201 9.57925ZM22.9825 11.5318L25.7175 4.60764C25.775 4.46739 25.8043 4.36861 25.8043 4.31082C25.8043 4.21215 25.7463 4.16252 25.6302 4.16252H24.9342C24.8013 4.16252 24.7108 4.1836 24.6602 4.22458C24.6103 4.26616 24.561 4.35688 24.5111 4.49713L22.8327 9.29427L21.0926 4.49713C21.0426 4.35688 20.9933 4.26616 20.9434 4.22458C20.8934 4.1836 20.8024 4.16252 20.6694 4.16252H19.9235C19.8075 4.16252 19.7494 4.21215 19.7494 4.31082C19.7494 4.36851 19.7781 4.46729 19.8362 4.60764L22.2354 10.4932L21.9994 11.1239C21.8584 11.52 21.7011 11.7919 21.527 11.9403C21.3529 12.0886 21.1082 12.1625 20.7936 12.1625C20.6526 12.1625 20.5408 12.1539 20.4584 12.1377C20.3754 12.1216 20.313 12.1128 20.2718 12.1128C20.1476 12.1128 20.0852 12.1911 20.0852 12.3475V12.6691C20.0852 12.7846 20.1058 12.8691 20.1476 12.9225C20.1888 12.9758 20.255 13.0156 20.3467 13.0398C20.5533 13.0969 20.7899 13.1267 21.0551 13.1267C21.5276 13.1267 21.9108 13.0031 22.2048 12.7555C22.5 12.509 22.7591 12.1005 22.9825 11.5318ZM25.6938 15.9316C23.0662 17.8606 19.2569 18.8862 15.9764 18.8862C11.3789 18.8862 7.23891 17.1956 4.10631 14.382C3.86031 14.161 4.07941 13.8593 4.37531 14.0306C7.75511 15.9869 11.935 17.1652 16.2523 17.1652C19.1646 17.1652 22.3659 16.5642 25.3119 15.3213C25.7556 15.1332 26.1281 15.6119 25.6938 15.9316ZM26.7867 14.6899C27.1231 15.1183 26.4129 16.8822 26.0957 17.67C25.9997 17.9083 26.2057 18.0046 26.4228 17.824C27.8322 16.6512 28.1967 14.1934 27.9083 13.8382C27.6218 13.4862 25.1577 13.1832 23.6535 14.2337C23.4219 14.3951 23.4619 14.6186 23.7184 14.5875C24.5654 14.487 26.4509 14.2616 26.7867 14.6899Z" fill="#FF9900"/>
</svg>
