<svg width="30" height="28" viewBox="0 0 30 28" fill="none" xmlns="http://www.w3.org/2000/svg">
<mask id="mask0_7681_2758" style="mask-type:alpha" maskUnits="userSpaceOnUse" x="0" y="4" width="24" height="24">
<rect y="4" width="24" height="24" fill="#D9D9D9"/>
</mask>
<g mask="url(#mask0_7681_2758)">
<path d="M5.00002 25C4.71669 25 4.45836 24.9125 4.22502 24.7375C3.99169 24.5625 3.83336 24.3333 3.75002 24.05L0.950025 13.95C0.866691 13.7167 0.904191 13.5 1.06252 13.3C1.22086 13.1 1.43336 13 1.70002 13H6.75002L11.15 6.45C11.2334 6.31667 11.35 6.20833 11.5 6.125C11.65 6.04167 11.8084 6 11.975 6C12.1417 6 12.3 6.04167 12.45 6.125C12.6 6.20833 12.7167 6.31667 12.8 6.45L17.2 13H22.3C22.5667 13 22.7792 13.1 22.9375 13.3C23.0959 13.5 23.1334 13.7167 23.05 13.95L20.25 24.05C20.1667 24.3333 20.0084 24.5625 19.775 24.7375C19.5417 24.9125 19.2834 25 19 25H5.00002ZM5.50002 23H18.5L20.7 15H3.30002L5.50002 23ZM9.17502 13H14.8L11.975 8.8L9.17502 13Z" fill="#49454F"/>
</g>
</svg>
