<svg width="24" height="24" viewBox="0 0 24 24" fill="none" xmlns="http://www.w3.org/2000/svg">
<path d="M23.7666 9.64973H22.8V9.59993H12V14.3999H18.7818C17.7924 17.1941 15.1338 19.1999 12 19.1999C8.0238 19.1999 4.8 15.9761 4.8 11.9999C4.8 8.02375 8.0238 4.79997 12 4.79997C13.8354 4.79997 15.5052 5.49236 16.7766 6.62335L20.1708 3.22918C18.0276 1.23179 15.1608 0 12 0C5.373 0 0 5.37296 0 11.9999C0 18.6269 5.373 23.9998 12 23.9998C18.627 23.9998 24 18.6269 24 11.9999C24 11.1953 23.9172 10.4099 23.7666 9.64973Z" fill="#FFC107"/>
<path d="M1.38373 6.41456L5.32633 9.30594C6.39313 6.66476 8.97673 4.79997 12.0001 4.79997C13.8355 4.79997 15.5053 5.49236 16.7767 6.62336L20.1709 3.22918C18.0277 1.23179 15.1609 0 12.0001 0C7.39093 0 3.39373 2.60218 1.38373 6.41456Z" fill="#FF3D00"/>
<path d="M11.9997 24.0002C15.0993 24.0002 17.9157 22.814 20.0451 20.885L16.3311 17.7422C15.1263 18.6548 13.6287 19.2002 11.9997 19.2002C8.87851 19.2002 6.22831 17.21 5.22991 14.4326L1.31671 17.4476C3.30271 21.3338 7.33591 24.0002 11.9997 24.0002Z" fill="#4CAF50"/>
<path d="M23.7666 9.6499H22.8V9.6001H12V14.4001H18.7818C18.3066 15.7423 17.4432 16.8996 16.3296 17.7426C16.3302 17.742 16.3308 17.742 16.3314 17.7414L20.0454 20.8842C19.7826 21.123 24 18 24 12.0001C24 11.1955 23.9172 10.4101 23.7666 9.6499Z" fill="#1976D2"/>
</svg>
